<svg xmlns="http://www.w3.org/2000/svg" width="165" height="339" viewBox="0 0 165 339">
  <g id="promise" fill="none" fill-rule="evenodd" stroke="none" stroke-width="1">
    <g id="promise-then-chain.svg">
      <path id="Rectangle-1-Copy-3" fill="#252732" stroke="#4b4e65" stroke-width="2" d="M40 105h108v28H40z" /><text
        id=".then" fill="#7a7f9c" font-family="Arial" font-size="14" font-weight="normal">
        <tspan x="72.5" y="124">.then</tspan>
      </text>
      <path id="Rectangle-1-Copy-8" fill="#252732" stroke="#4b4e65" stroke-width="2" d="M40 10h108v28H40z" /><text
        id="new-Promise" fill="#7a7f9c" font-family="Arial" font-size="14" font-weight="normal">
        <tspan x="47.3" y="28">new Promise</tspan>
      </text><text id="resolve(1)" fill="#7a7f9c" font-family="Arial" font-size="14" font-weight="normal">
        <tspan x="7" y="70">resolve(1)</tspan>
      </text><text id="return-2" fill="#7a7f9c" font-family="Arial" font-size="14" font-weight="normal">
        <tspan x="14" y="167">return 2</tspan>
      </text>
      <path id="Line-Copy-8" fill="#7a7f9c" fill-rule="nonzero" d="M94.5 142.5v31h6l-7 14-7-14h6v-31h2z" />
      <path id="Rectangle-1-Copy-4" fill="#252732" stroke="#4b4e65" stroke-width="2" d="M40 202h108v28H40z" /><text
        id=".then-copy" fill="#7a7f9c" font-family="Arial" font-size="14" font-weight="normal">
        <tspan x="72.5" y="221">.then</tspan>
      </text><text id="return-4" fill="#7a7f9c" font-family="Arial" font-size="14" font-weight="normal">
        <tspan x="14" y="264">return 4</tspan>
      </text>
      <path id="Line-Copy-10" fill="#7a7f9c" fill-rule="nonzero" d="M94.5 240.5v31h6l-7 14-7-14h6v-31h2z" />
      <path id="Rectangle-1-Copy-5" fill="#252732" stroke="#4b4e65" stroke-width="2" d="M40 298h108v28H40z" /><text
        id=".then-copy-2" fill="#7a7f9c" font-family="Arial" font-size="14" font-weight="normal">
        <tspan x="72.5" y="317">.then</tspan>
      </text>
      <path id="Line-Copy-9" fill="#7a7f9c" fill-rule="nonzero" d="M94.5 46.5v31h6l-7 14-7-14h6v-31h2z" />
    </g>
  </g>
</svg>